<svg width="100" height="100" viewBox="0 0 100 100" fill="none" xmlns="http://www.w3.org/2000/svg">
<circle cx="50" cy="50" r="50" fill="white"/>
<path d="M34.592 72.296L32.48 70.184C31.6267 69.3307 31.2 68.2853 31.2 67.048V34.088C31.2 32.8507 31.6267 31.8053 32.48 30.952L34.592 28.84C35.4453 27.9867 36.4907 27.56 37.728 27.56H50.016C51.2533 27.56 52.2987 27.9867 53.152 28.84L55.264 30.952C56.1173 31.8053 56.544 32.8507 56.544 34.088V42.856C56.544 44.5627 55.6907 45.416 53.984 45.416H53.28C51.5733 45.416 50.72 44.5627 50.72 42.856V35.944C50.72 34.2373 49.8667 33.384 48.16 33.384H39.584C37.8773 33.384 37.024 34.2373 37.024 35.944V65.192C37.024 66.8987 37.8773 67.752 39.584 67.752H48.16C49.8667 67.752 50.72 66.8987 50.72 65.192V58.92C50.72 57.2133 51.5733 56.36 53.28 56.36H53.984C55.6907 56.36 56.544 57.2133 56.544 58.92V67.048C56.544 68.2853 56.1173 69.3307 55.264 70.184L53.152 72.296C52.2987 73.1493 51.2533 73.576 50.016 73.576H37.728C36.4907 73.576 35.4453 73.1493 34.592 72.296ZM65.702 62.44C63.9953 62.44 63.142 61.5867 63.142 59.88V29.16C63.142 27.4533 63.9953 26.6 65.702 26.6H66.342C68.0487 26.6 68.902 27.4533 68.902 29.16V59.88C68.902 61.5867 68.0487 62.44 66.342 62.44H65.702ZM63.398 71.976C62.6727 71.2507 62.31 70.5253 62.31 69.8C62.31 69.0747 62.6727 68.3493 63.398 67.624L63.846 67.176C64.5713 66.4507 65.2967 66.088 66.022 66.088C66.7473 66.088 67.4727 66.4507 68.198 67.176L68.646 67.624C69.3713 68.3493 69.734 69.0747 69.734 69.8C69.734 70.5253 69.3713 71.2507 68.646 71.976L68.198 72.424C67.4727 73.1493 66.7473 73.512 66.022 73.512C65.2967 73.512 64.5713 73.1493 63.846 72.424L63.398 71.976Z" fill="#111111"/>
</svg>
